# xmcd
# Track frame offsets:
# 150
# 9517
# 20457
# 29422
# 38105
# 50712
# 59247
# 73317
# 85447
# 98872
# 107787
# 117037
# 130642
# 140675
#
# Disc length: 2028 seconds
# Revision: 0
# Processed by: cddbd v1.5.1PL0 Copyright (c) Steve Scherf et al.
# Submitted via: VisiTrax 2.9.5.181 - For more info visit www.synapsa.com
#
DISCID=cb07ea0e
DTITLE=Jerry Lee Lewis - Golden country hits
DYEAR=1990
DGENRE=
TTITLE0=One minute past eternity
TTITLE1=I can't seem to say goodbye
TTITLE2=Home
TTITLE3=Invitation to your party
TTITLE4=Love made a fool of me
TTITLE5=I love you because
TTITLE6=Cold cold heart
TTITLE7=Born to loose
TTITLE8=The ballad of Billy Joe
TTITLE9=My blue heaven
TTITLE10=I can't trust me
TTITLE11=Seasons of my heart
TTITLE12=I forgot to remember to forget
TTITLE13=Carry me back to old Virginia
EXTD=
EXTT0=
EXTT1=
EXTT2=
EXTT3=
EXTT4=
EXTT5=
EXTT6=
EXTT7=
EXTT8=
EXTT9=
EXTT10=
EXTT11=
EXTT12=
EXTT13=
PLAYORDER=
